<svg id="Group_11355" data-name="Group 11355" xmlns="http://www.w3.org/2000/svg" width="150" height="20" viewBox="0 0 150 20">
  <g id="Group_11353" data-name="Group 11353" transform="translate(0 0.091)">
    <rect id="Rectangle_2710" data-name="Rectangle 2710" width="19.989" height="9.954" fill="#941a25"/>
    <rect id="Rectangle_2711" data-name="Rectangle 2711" width="19.989" height="9.955" transform="translate(9.995 9.954)" fill="#cf001c"/>
  </g>
  <g id="Group_11354" data-name="Group 11354" transform="translate(34.98)">
    <path id="Path_1926" data-name="Path 1926" d="M440.348-7671.4H430.081v-2.172h14.311l-10.281,17.74h10.281v2.172H430.081Z" transform="translate(-430.081 7673.661)" fill="#1a1818"/>
    <path id="Path_1927" data-name="Path 1927" d="M543.915-7673.574v19.912H541.4v-19.912Z" transform="translate(-520.957 7673.661)" fill="#1a1818"/>
    <path id="Path_1928" data-name="Path 1928" d="M599.789-7660.179v6.518h-2.515v-19.912H603a7.033,7.033,0,0,1,4.182,2.021,6.348,6.348,0,0,1,1.96,4.662,6.459,6.459,0,0,1-1.987,4.719,6.635,6.635,0,0,1-4.89,1.993Zm0-11.208v9.021h2.473a4.206,4.206,0,0,0,3.056-1.293,4.363,4.363,0,0,0,1.306-3.232,4.321,4.321,0,0,0-1.306-3.209,4.216,4.216,0,0,0-3.056-1.287Z" transform="translate(-566.57 7673.661)" fill="#1a1818"/>
    <path id="Path_1929" data-name="Path 1929" d="M701.273-7656.93a10.114,10.114,0,0,1-7.142,2.88,10.144,10.144,0,0,1-7.371-2.94,9.524,9.524,0,0,1-3.008-7.06,9.542,9.542,0,0,1,3.008-7.037,10.1,10.1,0,0,1,7.371-2.963,10.918,10.918,0,0,1,7.434,3.018l-1.751,1.521a8.639,8.639,0,0,0-5.683-2.378,7.629,7.629,0,0,0-5.522,2.276,7.481,7.481,0,0,0-2.328,5.563,7.5,7.5,0,0,0,2.328,5.586,7.64,7.64,0,0,0,5.522,2.268,7.28,7.28,0,0,0,4.641-1.5v-5.949h2.5Z" transform="translate(-637.167 7674.05)" fill="#1a1818"/>
    <path id="Path_1930" data-name="Path 1930" d="M819.836-7660.179h-2.348v6.518h-2.515v-19.912H820.7a7.034,7.034,0,0,1,4.182,2.021,6.348,6.348,0,0,1,1.959,4.662,6.46,6.46,0,0,1-2.014,4.733,5.473,5.473,0,0,1-2.362,1.591l4.488,6.9h-2.9Zm-2.348-11.208v9.021h2.473a4.208,4.208,0,0,0,3.057-1.293,4.364,4.364,0,0,0,1.306-3.232,4.322,4.322,0,0,0-1.306-3.209,4.218,4.218,0,0,0-3.057-1.287Z" transform="translate(-744.29 7673.661)" fill="#1a1818"/>
    <path id="Path_1931" data-name="Path 1931" d="M921.479-7673.574v19.912h-2.514v-19.912Z" transform="translate(-829.183 7673.661)" fill="#1a1818"/>
    <path id="Path_1932" data-name="Path 1932" d="M979.066-7673.574q5,.029,7.78,2.81a9.769,9.769,0,0,1,2.973,7.14,9.865,9.865,0,0,1-3.028,7.223q-2.723,2.712-7.725,2.74h-4.224v-19.912Zm-1.709,2.214v15.5h1.7a8.076,8.076,0,0,0,5.849-2.048,7.757,7.757,0,0,0,2.348-5.714,7.816,7.816,0,0,0-2.348-5.715,8.145,8.145,0,0,0-5.849-2.02Z" transform="translate(-874.799 7673.661)" fill="#1a1818"/>
  </g>
</svg>
