<svg xmlns="http://www.w3.org/2000/svg" width="16" height="16" viewBox="0 0 15 16">
  <path id="_3ea3309757e7ff99fa89e3339abdc268" data-name="3ea3309757e7ff99fa89e3339abdc268" d="M16.222,6.789h0l-4.667-4.2a2.287,2.287,0,0,0-3.111,0l-4.667,4.2A2.427,2.427,0,0,0,3,8.6v6.984a2.366,2.366,0,0,0,2.333,2.4h9.333A2.366,2.366,0,0,0,17,15.579V8.587a2.427,2.427,0,0,0-.778-1.8Zm-4.667,9.589H8.444v-4a.789.789,0,0,1,.778-.8h1.556a.789.789,0,0,1,.778.8Zm3.889-.8a.789.789,0,0,1-.778.8H13.111v-4a2.366,2.366,0,0,0-2.333-2.4H9.222a2.366,2.366,0,0,0-2.333,2.4v4H5.333a.789.789,0,0,1-.778-.8V8.587a.809.809,0,0,1,.264-.6L9.487,3.793a.762.762,0,0,1,1.027,0L15.18,7.988a.809.809,0,0,1,.264.6Z" transform="translate(-3 -1.976)"/>
</svg>
