<svg id="Group_13285" data-name="Group 13285" xmlns="http://www.w3.org/2000/svg" width="180" height="106" viewBox="0 0 180 106">
  <g id="Group_11374" data-name="Group 11374" transform="translate(0 74.662)">
    <path id="Path_1975" data-name="Path 1975" d="M6070.8-488.127h-16.068v-3.4h22.4l-16.089,27.8h16.089v3.4h-22.4Z" transform="translate(-6054.729 491.667)" />
    <path id="Path_1976" data-name="Path 1976" d="M6144.631-491.531v31.2H6140.7v-31.2Z" transform="translate(-6108.703 491.667)" />
    <path id="Path_1977" data-name="Path 1977" d="M6187.782-470.541v10.212h-3.936v-31.2h8.959a11,11,0,0,1,6.544,3.166,9.957,9.957,0,0,1,3.066,7.307,10.128,10.128,0,0,1-3.11,7.394,10.382,10.382,0,0,1-7.655,3.123Zm0-17.563v14.137h3.869a6.576,6.576,0,0,0,4.784-2.028,6.838,6.838,0,0,0,2.044-5.063,6.774,6.774,0,0,0-2.044-5.03,6.594,6.594,0,0,0-4.784-2.017Z" transform="translate(-6135.795 491.667)" />
    <path id="Path_1978" data-name="Path 1978" d="M6278.047-465.073a15.823,15.823,0,0,1-11.177,4.513,15.856,15.856,0,0,1-11.534-4.609,14.926,14.926,0,0,1-4.707-11.06,14.96,14.96,0,0,1,4.707-11.028,15.8,15.8,0,0,1,11.534-4.641,17.077,17.077,0,0,1,11.634,4.726l-2.741,2.384a13.507,13.507,0,0,0-8.893-3.726,11.933,11.933,0,0,0-8.643,3.566,11.736,11.736,0,0,0-3.641,8.717,11.75,11.75,0,0,0,3.641,8.751,11.95,11.95,0,0,0,8.643,3.556,11.393,11.393,0,0,0,7.263-2.342v-9.325h3.914Z" transform="translate(-6177.724 491.898)" />
    <path id="Path_1979" data-name="Path 1979" d="M6359.574-470.541H6355.9v10.212h-3.937v-31.2h8.959a11,11,0,0,1,6.544,3.166,9.957,9.957,0,0,1,3.066,7.307,10.129,10.129,0,0,1-3.153,7.416,8.566,8.566,0,0,1-3.7,2.494l7.023,10.82h-4.545ZM6355.9-488.1v14.137h3.87a6.579,6.579,0,0,0,4.784-2.028,6.843,6.843,0,0,0,2.042-5.063,6.779,6.779,0,0,0-2.042-5.03,6.6,6.6,0,0,0-4.784-2.017Z" transform="translate(-6241.347 491.667)" />
    <path id="Path_1980" data-name="Path 1980" d="M6436.207-491.531v31.2h-3.936v-31.2Z" transform="translate(-6291.769 491.667)" />
    <path id="Path_1981" data-name="Path 1981" d="M6482.033-491.531q7.826.044,12.175,4.4a15.319,15.319,0,0,1,4.654,11.188,15.469,15.469,0,0,1-4.74,11.319q-4.263,4.25-12.089,4.293h-6.61v-31.2Zm-2.674,3.469v24.285h2.652q5.827,0,9.153-3.209a12.16,12.16,0,0,0,3.674-8.955,12.252,12.252,0,0,0-3.674-8.955q-3.324-3.165-9.153-3.167Z" transform="translate(-6318.862 491.667)" />
  </g>
  <g id="Group_11375" data-name="Group 11375" transform="translate(45)">
    <rect id="Rectangle_2728" data-name="Rectangle 2728" width="59.999" height="29.918" />
    <rect id="Rectangle_2729" data-name="Rectangle 2729" width="60" height="29.917" transform="translate(30 29.918)" />
  </g>
</svg>
