<svg xmlns="http://www.w3.org/2000/svg" width="22" height="24" viewBox="0 0 22 24">
  <g id="c07282caf5b948df0db9e3cc936d5227" transform="translate(-0.03 -0.028)">
    <path id="Path_1937" data-name="Path 1937"
      d="M10.313.028h1.431a3.032,3.032,0,0,1,2.178.934,3.127,3.127,0,0,1,.859,2.218,1.268,1.268,0,0,0,.172.613,1.306,1.306,0,0,0,1.806.479l.009-.005a3,3,0,0,1,1.508-.409h0A3.04,3.04,0,0,1,20.912,5.4l.71,1.251a.874.874,0,0,1,.049.1,3.121,3.121,0,0,1-1.152,4.1l-.007,0a1.3,1.3,0,0,0-.476.484l0,.006a1.363,1.363,0,0,0-.135,1.017,1.343,1.343,0,0,0,.615.814,3.089,3.089,0,0,1,1.416,1.872,3.135,3.135,0,0,1-.309,2.339l-.006.01-.749,1.268A3.042,3.042,0,0,1,18.24,20.2a3,3,0,0,1-1.515-.412,1.355,1.355,0,0,0-.63-.181,1.3,1.3,0,0,0-.928.391,1.356,1.356,0,0,0-.386.951s0,.006,0,.008a3.068,3.068,0,0,1-3.038,3.07H10.313a3.065,3.065,0,0,1-3.038-3.079,1.267,1.267,0,0,0-.173-.622L7.1,20.315a1.317,1.317,0,0,0-.8-.622,1.3,1.3,0,0,0-1,.136l-.013.007a3,3,0,0,1-2.316.276,3.067,3.067,0,0,1-1.822-1.464L.436,17.393a3.1,3.1,0,0,1,1.105-4.2,1.357,1.357,0,0,0,0-2.334A3.117,3.117,0,0,1,.434,6.654l.01-.018L1.2,5.372A3.04,3.04,0,0,1,3.831,3.837a3,3,0,0,1,1.508.409l.011.007a1.221,1.221,0,0,0,.612.175A1.342,1.342,0,0,0,7.285,3.107,3.119,3.119,0,0,1,8.167.934,3.025,3.025,0,0,1,10.313.028Zm5.779,6.166A3.011,3.011,0,0,1,13.48,4.675a3.023,3.023,0,0,1-.41-1.491q0-.017,0-.034a1.366,1.366,0,0,0-.375-.978,1.324,1.324,0,0,0-.951-.408v0H10.313a1.315,1.315,0,0,0-.933.394A1.356,1.356,0,0,0,9,3.108q0,.008,0,.017a3.073,3.073,0,0,1-3.038,3.04H5.949a2.915,2.915,0,0,1-1.465-.414,1.31,1.31,0,0,0-.653-.176,1.329,1.329,0,0,0-1.152.675l-.01.018L1.913,7.529A1.361,1.361,0,0,0,2.4,9.358a3.108,3.108,0,0,1,0,5.341,1.349,1.349,0,0,0-.48,1.824l.72,1.26.008.015a1.34,1.34,0,0,0,.8.643,1.322,1.322,0,0,0,1.006-.118,2.977,2.977,0,0,1,2.293-.309,3.082,3.082,0,0,1,2.244,2.92s0,.006,0,.009a1.339,1.339,0,0,0,1.327,1.347h1.431a1.34,1.34,0,0,0,1.327-1.337,3.118,3.118,0,0,1,.887-2.183,2.985,2.985,0,0,1,2.141-.9h.033a3.055,3.055,0,0,1,1.446.411,1.313,1.313,0,0,0,.663.182,1.329,1.329,0,0,0,1.149-.67l.006-.01.748-1.266a1.363,1.363,0,0,0,.132-1.013,1.343,1.343,0,0,0-.616-.814,3.088,3.088,0,0,1-1.416-1.872,3.135,3.135,0,0,1,.308-2.336,3.022,3.022,0,0,1,1.106-1.123,1.363,1.363,0,0,0,.48-1.829.875.875,0,0,1-.041-.082l-.668-1.176A1.329,1.329,0,0,0,18.277,5.6h0a1.31,1.31,0,0,0-.654.177A3,3,0,0,1,16.092,6.194Z"
      transform="translate(0 0)" />
    <path id="Ellipse_37" data-name="Ellipse 37"
      d="M3.113-.75A3.9,3.9,0,0,1,6.976,3.172,3.9,3.9,0,0,1,3.113,7.093,3.9,3.9,0,0,1-.75,3.172,3.9,3.9,0,0,1,3.113-.75Zm0,6.106a2.185,2.185,0,0,0,0-4.369,2.185,2.185,0,0,0,0,4.369Z"
      transform="translate(7.92 8.856)" />
  </g>
</svg>