<?xml version="1.0" encoding="utf-8"?>
<svg width="10" height="6" viewBox="0 0 10 6" xmlns="http://www.w3.org/2000/svg">
  <path id="Path_3899" data-name="Path 3899" d="M 4.61 5.819 C 4.706 5.935 4.849 6.001 5 6 C 5.151 6.001 5.294 5.935 5.39 5.819 L 9.839 1.435 C 9.944 1.335 10.002 1.196 10 1.051 C 10.002 0.906 9.944 0.767 9.839 0.667 L 9.339 0.167 C 9.235 0.063 9.096 0.003 8.949 -0.002 C 8.804 -0.012 8.661 0.042 8.559 0.145 L 5.004 3.645 L 1.449 0.145 C 1.347 0.042 1.204 -0.012 1.059 -0.002 C 0.912 0.003 0.773 0.063 0.669 0.167 L 0.169 0.667 C 0.064 0.767 0.006 0.906 0.008 1.051 C 0.003 1.194 0.058 1.333 0.159 1.435 L 4.61 5.819 Z" fill="#222" style="transform-box: fill-box; transform-origin: 50% 50%;" transform="matrix(-1, 0, 0, -1, 0, 0)"/>
</svg>